<?xml version="1.0" encoding="utf-8"?>
<!-- Generator: Adobe Illustrator 24.2.0, SVG Export Plug-In . SVG Version: 6.00 Build 0)  -->
<svg version="1.1" id="Layer_1" xmlns="http://www.w3.org/2000/svg" xmlns:xlink="http://www.w3.org/1999/xlink" x="0px" y="0px"
	 width="52.266px" height="52.266px" viewBox="0 0 52.266 52.266" enable-background="new 0 0 52.266 52.266" xml:space="preserve">
<g>
	<path fill-rule="evenodd" clip-rule="evenodd" fill="#042A78" d="M26.133,0.508c14.152,0,25.625,11.472,25.625,25.625
		c0,14.152-11.473,25.625-25.625,25.625c-14.152,0-25.625-11.472-25.625-25.625C0.508,11.981,11.981,0.508,26.133,0.508
		L26.133,0.508z M26.133,7.778c10.137,0,18.354,8.218,18.354,18.355c0,10.137-8.217,18.355-18.354,18.355
		c-10.137,0-18.355-8.218-18.355-18.355C7.778,15.996,15.996,7.778,26.133,7.778L26.133,7.778z"/>
	<path fill-rule="evenodd" clip-rule="evenodd" fill="#0569C2" d="M26.133,4.681c11.848,0,21.452,9.604,21.452,21.452
		c0,11.848-9.604,21.452-21.452,21.452c-11.848,0-21.452-9.604-21.452-21.452C4.681,14.285,14.285,4.681,26.133,4.681L26.133,4.681z
		 M26.133,7.778c10.137,0,18.354,8.217,18.354,18.355c0,10.137-8.217,18.355-18.354,18.355S7.778,36.27,7.778,26.133
		C7.778,15.995,15.996,7.778,26.133,7.778L26.133,7.778z"/>
	<path fill-rule="evenodd" clip-rule="evenodd" fill="#FF7400" d="M23.807,20.895l-1.336-2.092l-4.533-7.099
		c-2.596,1.478-4.755,3.636-6.233,6.232l7.099,4.534l2.091,1.336C21.471,22.512,22.512,21.47,23.807,20.895L23.807,20.895z
		 M20.784,24.073l-2.424-0.534l-8.226-1.814c-0.386,1.404-0.593,2.882-0.593,4.408c0,1.526,0.207,3.003,0.593,4.407l8.226-1.814
		l2.423-0.534c-0.246-0.639-0.381-1.333-0.381-2.058C20.403,25.407,20.538,24.712,20.784,24.073L20.784,24.073z M20.895,28.459
		l-2.091,1.336l-7.099,4.533c1.478,2.597,3.637,4.755,6.233,6.233l4.534-7.099l1.336-2.092
		C22.512,30.795,21.471,29.753,20.895,28.459L20.895,28.459z M24.074,31.482l-0.534,2.424l-1.814,8.226
		c1.403,0.386,2.881,0.593,4.407,0.593c1.526,0,3.004-0.207,4.408-0.593l-1.814-8.226l-0.534-2.424
		c-0.639,0.246-1.333,0.382-2.059,0.382C25.407,31.863,24.713,31.728,24.074,31.482L24.074,31.482z M28.459,31.371l1.336,2.092
		l4.534,7.099c2.597-1.478,4.755-3.637,6.233-6.233l-7.099-4.533l-2.092-1.336C30.795,29.753,29.754,30.795,28.459,31.371
		L28.459,31.371z M31.482,28.191l2.424,0.535l8.226,1.814c0.386-1.403,0.593-2.881,0.593-4.407c0-1.526-0.207-3.004-0.593-4.408
		l-8.226,1.814l-2.424,0.534c0.246,0.639,0.382,1.333,0.382,2.059C31.863,26.858,31.728,27.552,31.482,28.191L31.482,28.191z
		 M31.371,23.807l2.092-1.336l7.099-4.533c-1.478-2.596-3.637-4.755-6.233-6.233l-4.533,7.099l-1.336,2.092
		C29.754,21.471,30.795,22.512,31.371,23.807L31.371,23.807z M28.192,20.784l0.534-2.424l1.814-8.226
		c-1.403-0.386-2.881-0.593-4.408-0.593c-1.526,0-3.004,0.207-4.407,0.593l1.814,8.226l0.534,2.424
		c0.639-0.246,1.333-0.381,2.059-0.381C26.858,20.402,27.553,20.537,28.192,20.784L28.192,20.784z"/>
	<g>
		<defs>
			<path id="SVGID_1_" d="M26.133,21.75c2.421,0,4.382,1.962,4.382,4.382c0,2.42-1.962,4.382-4.382,4.382
				c-2.42,0-4.382-1.962-4.382-4.382C21.75,23.713,23.713,21.75,26.133,21.75L26.133,21.75z"/>
		</defs>
		<clipPath id="SVGID_2_">
			<use xlink:href="#SVGID_1_"  overflow="visible"/>
		</clipPath>
		<polygon clip-path="url(#SVGID_2_)" fill-rule="evenodd" clip-rule="evenodd" fill="#FF6600" points="21.75,21.75 30.515,21.75 
			30.515,30.515 21.75,30.515 21.75,21.75 		"/>
		<path clip-path="url(#SVGID_2_)" fill-rule="evenodd" clip-rule="evenodd" fill="#FF6600" d="M26.277,26.239
			c0-0.028-0.022-0.05-0.05-0.05s-0.05,0.022-0.05,0.05c0,0.027,0.022,0.05,0.05,0.05S26.277,26.266,26.277,26.239L26.277,26.239z"
			/>
		<path clip-path="url(#SVGID_2_)" fill-rule="evenodd" clip-rule="evenodd" fill="#FF6600" d="M26.261,26.239
			c0,0.018-0.015,0.033-0.033,0.033c-0.018,0-0.033-0.015-0.033-0.033c0-0.018,0.015-0.033,0.033-0.033
			C26.246,26.206,26.261,26.22,26.261,26.239L26.261,26.239z M26.31,26.239c0-0.046-0.037-0.083-0.083-0.083
			c-0.046,0-0.083,0.037-0.083,0.083c0,0.046,0.037,0.083,0.083,0.083C26.273,26.322,26.31,26.284,26.31,26.239L26.31,26.239z"/>
		<path clip-path="url(#SVGID_2_)" fill-rule="evenodd" clip-rule="evenodd" fill="#FF6600" d="M26.294,26.239
			c0,0.036-0.03,0.066-0.066,0.066c-0.037,0-0.066-0.03-0.066-0.066c0-0.037,0.029-0.066,0.066-0.066
			C26.264,26.172,26.294,26.202,26.294,26.239L26.294,26.239z M26.343,26.239c0-0.064-0.052-0.116-0.116-0.116
			s-0.116,0.052-0.116,0.116c0,0.064,0.052,0.116,0.116,0.116S26.343,26.303,26.343,26.239L26.343,26.239z"/>
		<path clip-path="url(#SVGID_2_)" fill-rule="evenodd" clip-rule="evenodd" fill="#FF6600" d="M26.327,26.239
			c0,0.055-0.045,0.099-0.1,0.099c-0.055,0-0.099-0.044-0.099-0.099c0-0.055,0.045-0.1,0.099-0.1
			C26.282,26.139,26.327,26.184,26.327,26.239L26.327,26.239z M26.377,26.239c0-0.083-0.067-0.149-0.149-0.149
			c-0.082,0-0.149,0.067-0.149,0.149c0,0.082,0.067,0.149,0.149,0.149C26.31,26.388,26.377,26.321,26.377,26.239L26.377,26.239z"/>
		<path clip-path="url(#SVGID_2_)" fill-rule="evenodd" clip-rule="evenodd" fill="#FF6600" d="M26.36,26.239
			c0,0.073-0.059,0.132-0.132,0.132c-0.073,0-0.133-0.059-0.133-0.132c0-0.073,0.059-0.133,0.133-0.133
			C26.301,26.106,26.36,26.165,26.36,26.239L26.36,26.239z M26.41,26.239c0-0.101-0.082-0.183-0.182-0.183
			c-0.101,0-0.183,0.082-0.183,0.183c0,0.101,0.082,0.182,0.183,0.182C26.328,26.421,26.41,26.339,26.41,26.239L26.41,26.239z"/>
		<path clip-path="url(#SVGID_2_)" fill-rule="evenodd" clip-rule="evenodd" fill="#FF6600" d="M26.393,26.239
			c0,0.092-0.074,0.166-0.166,0.166s-0.166-0.074-0.166-0.166c0-0.092,0.074-0.166,0.166-0.166S26.393,26.147,26.393,26.239
			L26.393,26.239z M26.443,26.239c0-0.119-0.097-0.216-0.215-0.216c-0.119,0-0.216,0.097-0.216,0.216
			c0,0.119,0.097,0.215,0.216,0.215S26.443,26.358,26.443,26.239L26.443,26.239z"/>
		<path clip-path="url(#SVGID_2_)" fill-rule="evenodd" clip-rule="evenodd" fill="#FF6600" d="M26.426,26.239
			c0,0.11-0.089,0.199-0.199,0.199c-0.11,0-0.199-0.089-0.199-0.199c0-0.11,0.089-0.199,0.199-0.199
			C26.337,26.04,26.426,26.129,26.426,26.239L26.426,26.239z M26.476,26.239c0-0.138-0.111-0.249-0.249-0.249
			c-0.137,0-0.249,0.111-0.249,0.249c0,0.137,0.111,0.249,0.249,0.249C26.365,26.487,26.476,26.376,26.476,26.239L26.476,26.239z"/>
		<path clip-path="url(#SVGID_2_)" fill-rule="evenodd" clip-rule="evenodd" fill="#FF6600" d="M26.459,26.239
			c0,0.128-0.104,0.232-0.232,0.232c-0.128,0-0.232-0.104-0.232-0.232c0-0.128,0.104-0.232,0.232-0.232
			C26.356,26.007,26.459,26.11,26.459,26.239L26.459,26.239z M26.509,26.239c0-0.156-0.126-0.282-0.282-0.282
			s-0.282,0.126-0.282,0.282c0,0.156,0.126,0.282,0.282,0.282S26.509,26.394,26.509,26.239L26.509,26.239z"/>
		<path clip-path="url(#SVGID_2_)" fill-rule="evenodd" clip-rule="evenodd" fill="#FF6600" d="M26.493,26.239
			c0,0.146-0.119,0.265-0.265,0.265c-0.147,0-0.265-0.119-0.265-0.265c0-0.147,0.119-0.265,0.265-0.265
			C26.374,25.974,26.493,26.092,26.493,26.239L26.493,26.239z M26.542,26.239c0-0.174-0.141-0.315-0.315-0.315
			c-0.174,0-0.315,0.141-0.315,0.315c0,0.174,0.141,0.315,0.315,0.315C26.401,26.554,26.542,26.413,26.542,26.239L26.542,26.239z"/>
		<path clip-path="url(#SVGID_2_)" fill-rule="evenodd" clip-rule="evenodd" fill="#FF6600" d="M26.526,26.239
			c0,0.165-0.134,0.298-0.298,0.298c-0.165,0-0.298-0.133-0.298-0.298c0-0.165,0.134-0.299,0.298-0.299
			C26.392,25.94,26.526,26.074,26.526,26.239L26.526,26.239z M26.576,26.239c0-0.193-0.156-0.348-0.348-0.348
			c-0.192,0-0.348,0.156-0.348,0.348c0,0.192,0.156,0.348,0.348,0.348C26.42,26.587,26.576,26.431,26.576,26.239L26.576,26.239z"/>
		<path clip-path="url(#SVGID_2_)" fill-rule="evenodd" clip-rule="evenodd" fill="#FF6600" d="M26.559,26.239
			c0,0.183-0.148,0.331-0.331,0.331c-0.183,0-0.332-0.148-0.332-0.331c0-0.183,0.149-0.332,0.332-0.332
			C26.411,25.907,26.559,26.056,26.559,26.239L26.559,26.239z M26.609,26.239c0-0.211-0.171-0.381-0.381-0.381
			c-0.211,0-0.381,0.171-0.381,0.381c0,0.21,0.171,0.381,0.381,0.381C26.438,26.62,26.609,26.449,26.609,26.239L26.609,26.239z"/>
		<path clip-path="url(#SVGID_2_)" fill-rule="evenodd" clip-rule="evenodd" fill="#FF6600" d="M26.592,26.239
			c0,0.201-0.163,0.365-0.365,0.365c-0.202,0-0.365-0.163-0.365-0.365c0-0.202,0.163-0.365,0.365-0.365
			C26.429,25.874,26.592,26.037,26.592,26.239L26.592,26.239z M26.642,26.239c0-0.229-0.186-0.414-0.414-0.414
			c-0.229,0-0.414,0.185-0.414,0.414c0,0.229,0.185,0.414,0.414,0.414C26.456,26.653,26.642,26.467,26.642,26.239L26.642,26.239z"/>
		<path clip-path="url(#SVGID_2_)" fill-rule="evenodd" clip-rule="evenodd" fill="#FF6600" d="M26.625,26.239
			c0,0.22-0.178,0.398-0.398,0.398c-0.22,0-0.398-0.178-0.398-0.398c0-0.22,0.178-0.398,0.398-0.398
			C26.447,25.841,26.625,26.019,26.625,26.239L26.625,26.239z M26.675,26.239c0-0.247-0.2-0.448-0.448-0.448
			c-0.247,0-0.448,0.2-0.448,0.448c0,0.247,0.2,0.448,0.448,0.448C26.475,26.686,26.675,26.486,26.675,26.239L26.675,26.239z"/>
		<path clip-path="url(#SVGID_2_)" fill-rule="evenodd" clip-rule="evenodd" fill="#FF6600" d="M26.658,26.239
			c0,0.238-0.193,0.431-0.431,0.431c-0.238,0-0.431-0.193-0.431-0.431c0-0.238,0.193-0.431,0.431-0.431
			C26.465,25.808,26.658,26.001,26.658,26.239L26.658,26.239z M26.708,26.239c0-0.266-0.215-0.481-0.481-0.481
			c-0.266,0-0.481,0.215-0.481,0.481c0,0.265,0.215,0.481,0.481,0.48C26.493,26.719,26.708,26.504,26.708,26.239L26.708,26.239z"/>
		<path clip-path="url(#SVGID_2_)" fill-rule="evenodd" clip-rule="evenodd" fill="#FF6600" d="M26.691,26.239
			c0,0.256-0.208,0.464-0.464,0.464c-0.257,0-0.464-0.208-0.464-0.464c0-0.257,0.208-0.464,0.464-0.464
			C26.484,25.774,26.691,25.982,26.691,26.239L26.691,26.239z M26.741,26.239c0-0.284-0.23-0.514-0.514-0.514
			c-0.284,0-0.514,0.23-0.514,0.514c0,0.284,0.23,0.514,0.514,0.514C26.511,26.752,26.741,26.523,26.741,26.239L26.741,26.239z"/>
		<path clip-path="url(#SVGID_2_)" fill-rule="evenodd" clip-rule="evenodd" fill="#FF6600" d="M26.725,26.239
			c0,0.274-0.223,0.497-0.497,0.497s-0.497-0.223-0.497-0.497c0-0.275,0.223-0.497,0.497-0.497
			C26.502,25.741,26.725,25.964,26.725,26.239L26.725,26.239z M26.774,26.239c0-0.302-0.245-0.547-0.547-0.547
			c-0.302,0-0.547,0.245-0.547,0.547c0,0.302,0.245,0.547,0.547,0.547C26.53,26.786,26.775,26.541,26.774,26.239L26.774,26.239z"/>
		<path clip-path="url(#SVGID_2_)" fill-rule="evenodd" clip-rule="evenodd" fill="#FF6600" d="M26.758,26.239
			c0,0.293-0.238,0.53-0.53,0.53c-0.293,0-0.531-0.237-0.531-0.53c0-0.293,0.238-0.531,0.531-0.531
			C26.52,25.708,26.758,25.946,26.758,26.239L26.758,26.239z M26.807,26.239c0-0.321-0.26-0.58-0.58-0.58
			c-0.321,0-0.58,0.26-0.58,0.58c0,0.32,0.26,0.58,0.58,0.58C26.548,26.819,26.807,26.559,26.807,26.239L26.807,26.239z"/>
		<path clip-path="url(#SVGID_2_)" fill-rule="evenodd" clip-rule="evenodd" fill="#FF6600" d="M26.791,26.239
			c0,0.311-0.252,0.563-0.564,0.563s-0.564-0.252-0.564-0.563c0-0.311,0.252-0.564,0.564-0.564
			C26.539,25.675,26.791,25.927,26.791,26.239L26.791,26.239z M26.841,26.239c0-0.339-0.274-0.614-0.613-0.614
			s-0.613,0.275-0.613,0.614c0,0.339,0.275,0.613,0.613,0.613S26.841,26.577,26.841,26.239L26.841,26.239z"/>
		<path clip-path="url(#SVGID_2_)" fill-rule="evenodd" clip-rule="evenodd" fill="#FF6600" d="M26.824,26.239
			c0,0.329-0.267,0.597-0.597,0.597c-0.33,0-0.597-0.267-0.597-0.597c0-0.33,0.267-0.597,0.597-0.597
			C26.557,25.642,26.824,25.909,26.824,26.239L26.824,26.239z M26.874,26.239c0-0.357-0.289-0.647-0.646-0.647
			c-0.357,0-0.647,0.289-0.647,0.647c0,0.357,0.289,0.646,0.647,0.646C26.584,26.885,26.874,26.596,26.874,26.239L26.874,26.239z"/>
		<path clip-path="url(#SVGID_2_)" fill-rule="evenodd" clip-rule="evenodd" fill="#FF6600" d="M26.857,26.239
			c0,0.348-0.282,0.63-0.63,0.63c-0.348,0-0.63-0.282-0.63-0.63c0-0.348,0.282-0.63,0.63-0.63
			C26.575,25.609,26.857,25.891,26.857,26.239L26.857,26.239z M26.907,26.239c0-0.375-0.304-0.68-0.679-0.68
			c-0.376,0-0.68,0.305-0.68,0.68c0,0.375,0.304,0.679,0.68,0.679C26.603,26.918,26.907,26.614,26.907,26.239L26.907,26.239z"/>
		<path clip-path="url(#SVGID_2_)" fill-rule="evenodd" clip-rule="evenodd" fill="#FF6600" d="M26.89,26.239
			c0,0.366-0.297,0.663-0.663,0.663s-0.663-0.297-0.663-0.663c0-0.366,0.297-0.663,0.663-0.663
			C26.593,25.575,26.89,25.872,26.89,26.239L26.89,26.239z M26.94,26.239c0-0.393-0.319-0.713-0.713-0.713
			c-0.394,0-0.713,0.319-0.713,0.713c0,0.393,0.319,0.713,0.713,0.713C26.621,26.951,26.94,26.632,26.94,26.239L26.94,26.239z"/>
		<path clip-path="url(#SVGID_2_)" fill-rule="evenodd" clip-rule="evenodd" fill="#FF6600" d="M26.924,26.239
			c0,0.385-0.312,0.696-0.696,0.696c-0.385,0-0.696-0.312-0.696-0.696c0-0.385,0.312-0.696,0.696-0.696
			C26.612,25.542,26.924,25.854,26.924,26.239L26.924,26.239z M26.973,26.239c0-0.412-0.334-0.746-0.746-0.746
			c-0.412,0-0.746,0.334-0.746,0.746c0,0.412,0.334,0.746,0.746,0.746C26.639,26.985,26.973,26.651,26.973,26.239L26.973,26.239z"/>
		<path clip-path="url(#SVGID_2_)" fill-rule="evenodd" clip-rule="evenodd" fill="#FF6600" d="M26.957,26.239
			c0,0.403-0.327,0.73-0.729,0.73s-0.729-0.327-0.729-0.729c0-0.403,0.326-0.729,0.729-0.729
			C26.63,25.509,26.957,25.836,26.957,26.239L26.957,26.239z M27.006,26.239c0-0.43-0.349-0.779-0.779-0.779
			c-0.43,0-0.779,0.349-0.779,0.779c0,0.43,0.349,0.779,0.779,0.779S27.006,26.669,27.006,26.239L27.006,26.239z"/>
		<path clip-path="url(#SVGID_2_)" fill-rule="evenodd" clip-rule="evenodd" fill="#FF6600" d="M26.99,26.239
			c0,0.421-0.342,0.763-0.763,0.763c-0.421,0-0.763-0.342-0.763-0.763c0-0.421,0.341-0.763,0.763-0.763
			C26.648,25.476,26.99,25.818,26.99,26.239L26.99,26.239z M27.04,26.239c0-0.448-0.364-0.812-0.812-0.812
			c-0.449,0-0.812,0.364-0.812,0.812c0,0.448,0.364,0.812,0.812,0.812C26.676,27.051,27.04,26.687,27.04,26.239L27.04,26.239z"/>
		<path clip-path="url(#SVGID_2_)" fill-rule="evenodd" clip-rule="evenodd" fill="#FF6600" d="M27.023,26.239
			c0,0.44-0.356,0.796-0.796,0.796s-0.796-0.356-0.796-0.796c0-0.44,0.356-0.796,0.796-0.796
			C26.667,25.443,27.023,25.799,27.023,26.239L27.023,26.239z M27.073,26.239c0-0.467-0.378-0.845-0.845-0.845
			c-0.467,0-0.846,0.379-0.846,0.846c0,0.467,0.379,0.845,0.846,0.845C26.694,27.084,27.073,26.706,27.073,26.239L27.073,26.239z"/>
		<path clip-path="url(#SVGID_2_)" fill-rule="evenodd" clip-rule="evenodd" fill="#FF6600" d="M27.056,26.239
			c0,0.458-0.371,0.829-0.829,0.829c-0.458,0-0.829-0.371-0.829-0.829c0-0.458,0.371-0.829,0.829-0.829
			C26.685,25.41,27.056,25.781,27.056,26.239L27.056,26.239z M27.106,26.239c0-0.485-0.393-0.878-0.878-0.878
			c-0.485,0-0.879,0.393-0.879,0.879c0,0.485,0.393,0.878,0.879,0.878S27.106,26.724,27.106,26.239L27.106,26.239z"/>
		<path clip-path="url(#SVGID_2_)" fill-rule="evenodd" clip-rule="evenodd" fill="#FF6600" d="M27.09,26.239
			c0,0.476-0.386,0.862-0.862,0.862c-0.476,0-0.862-0.386-0.862-0.862c0-0.476,0.386-0.862,0.862-0.862
			C26.703,25.377,27.089,25.763,27.09,26.239L27.09,26.239z M27.139,26.239c0-0.503-0.408-0.912-0.912-0.912
			c-0.504,0-0.912,0.408-0.912,0.912c0,0.503,0.408,0.912,0.912,0.912C26.731,27.15,27.139,26.742,27.139,26.239L27.139,26.239z"/>
		<path clip-path="url(#SVGID_2_)" fill-rule="evenodd" clip-rule="evenodd" fill="#FF6600" d="M27.123,26.239
			c0,0.494-0.401,0.895-0.895,0.895c-0.494,0-0.895-0.401-0.895-0.895c0-0.494,0.401-0.895,0.895-0.895
			C26.722,25.344,27.122,25.744,27.123,26.239L27.123,26.239z M27.172,26.239c0-0.522-0.423-0.945-0.945-0.945
			c-0.522,0-0.945,0.423-0.945,0.945c0,0.522,0.423,0.945,0.945,0.945S27.172,26.76,27.172,26.239L27.172,26.239z"/>
		<path clip-path="url(#SVGID_2_)" fill-rule="evenodd" clip-rule="evenodd" fill="#FF6600" d="M27.156,26.239
			c0,0.513-0.416,0.928-0.928,0.928c-0.513,0-0.928-0.416-0.928-0.928c0-0.513,0.416-0.928,0.928-0.928
			C26.74,25.31,27.156,25.726,27.156,26.239L27.156,26.239z M27.205,26.239c0-0.54-0.438-0.978-0.978-0.978
			c-0.54,0-0.978,0.438-0.978,0.978c0,0.54,0.438,0.978,0.978,0.978C26.767,27.217,27.205,26.779,27.205,26.239L27.205,26.239z"/>
		<path clip-path="url(#SVGID_2_)" fill-rule="evenodd" clip-rule="evenodd" fill="#FF6600" d="M27.189,26.239
			c0,0.531-0.43,0.961-0.961,0.961c-0.531,0-0.962-0.43-0.962-0.961c0-0.531,0.43-0.962,0.962-0.962
			C26.758,25.277,27.189,25.708,27.189,26.239L27.189,26.239z M27.239,26.239c0-0.558-0.453-1.011-1.011-1.011
			c-0.559,0-1.011,0.453-1.011,1.011c0,0.558,0.453,1.011,1.011,1.011C26.786,27.25,27.239,26.797,27.239,26.239L27.239,26.239z"/>
		<path clip-path="url(#SVGID_2_)" fill-rule="evenodd" clip-rule="evenodd" fill="#FF6600" d="M27.222,26.239
			c0,0.549-0.445,0.995-0.994,0.995c-0.549,0-0.995-0.445-0.995-0.994c0-0.549,0.445-0.995,0.995-0.995
			C26.777,25.244,27.222,25.689,27.222,26.239L27.222,26.239z M27.272,26.239c0-0.577-0.468-1.044-1.045-1.044
			c-0.577,0-1.044,0.468-1.044,1.045c0,0.577,0.467,1.044,1.044,1.044S27.272,26.815,27.272,26.239L27.272,26.239z"/>
		<path clip-path="url(#SVGID_2_)" fill-rule="evenodd" clip-rule="evenodd" fill="#FF6600" d="M27.255,26.239
			c0,0.568-0.46,1.028-1.028,1.028c-0.568,0-1.028-0.46-1.028-1.028c0-0.568,0.46-1.028,1.028-1.028
			C26.795,25.211,27.255,25.671,27.255,26.239L27.255,26.239z M27.305,26.239c0-0.595-0.482-1.078-1.078-1.078
			c-0.595,0-1.077,0.483-1.077,1.078c0,0.595,0.482,1.077,1.077,1.077C26.822,27.316,27.305,26.834,27.305,26.239L27.305,26.239z"/>
		<path clip-path="url(#SVGID_2_)" fill-rule="evenodd" clip-rule="evenodd" fill="#FF6600" d="M27.288,26.239
			c0,0.586-0.475,1.061-1.061,1.061c-0.586,0-1.061-0.475-1.061-1.061c0-0.586,0.475-1.061,1.061-1.061
			C26.813,25.178,27.288,25.653,27.288,26.239L27.288,26.239z M27.338,26.239c0-0.613-0.497-1.111-1.111-1.11
			c-0.613,0-1.11,0.497-1.11,1.111c0,0.613,0.497,1.111,1.111,1.111C26.841,27.349,27.338,26.852,27.338,26.239L27.338,26.239z"/>
		<path clip-path="url(#SVGID_2_)" fill-rule="evenodd" clip-rule="evenodd" fill="#FF6600" d="M27.321,26.239
			c0,0.604-0.49,1.094-1.094,1.094c-0.604,0-1.094-0.49-1.094-1.094c0-0.604,0.49-1.094,1.094-1.094
			C26.832,25.145,27.321,25.634,27.321,26.239L27.321,26.239z M27.371,26.239c0-0.632-0.512-1.144-1.144-1.143
			c-0.632,0-1.143,0.512-1.143,1.144c0,0.631,0.512,1.144,1.144,1.144C26.859,27.383,27.371,26.87,27.371,26.239L27.371,26.239z"/>
		<path clip-path="url(#SVGID_2_)" fill-rule="evenodd" clip-rule="evenodd" fill="#FF6600" d="M27.355,26.239
			c0,0.623-0.505,1.127-1.127,1.127S25.1,26.861,25.1,26.239c0-0.623,0.505-1.127,1.127-1.127
			C26.85,25.111,27.355,25.616,27.355,26.239L27.355,26.239z M27.404,26.239c0-0.65-0.527-1.177-1.177-1.177
			c-0.65,0-1.177,0.527-1.177,1.177c0,0.65,0.527,1.177,1.177,1.177C26.877,27.415,27.404,26.888,27.404,26.239L27.404,26.239z"/>
		<path clip-path="url(#SVGID_2_)" fill-rule="evenodd" clip-rule="evenodd" fill="#FF6600" d="M27.388,26.239
			c0,0.641-0.519,1.16-1.16,1.16c-0.641,0-1.16-0.519-1.16-1.16c0-0.641,0.52-1.161,1.16-1.161
			C26.868,25.078,27.388,25.598,27.388,26.239L27.388,26.239z M27.438,26.239c0-0.668-0.542-1.21-1.21-1.21
			c-0.668,0-1.21,0.542-1.21,1.21c0,0.668,0.542,1.21,1.21,1.21C26.896,27.449,27.438,26.907,27.438,26.239L27.438,26.239z"/>
		<path clip-path="url(#SVGID_2_)" fill-rule="evenodd" clip-rule="evenodd" fill="#FF6600" d="M27.421,26.239
			c0,0.659-0.534,1.194-1.193,1.194c-0.659,0-1.194-0.534-1.194-1.193c0-0.659,0.534-1.194,1.193-1.194
			C26.887,25.045,27.421,25.579,27.421,26.239L27.421,26.239z M27.471,26.239c0-0.687-0.557-1.243-1.244-1.243
			c-0.687,0-1.243,0.557-1.243,1.243c0,0.687,0.557,1.243,1.243,1.243C26.914,27.482,27.471,26.925,27.471,26.239L27.471,26.239z"/>
		<path clip-path="url(#SVGID_2_)" fill-rule="evenodd" clip-rule="evenodd" fill="#FF6600" d="M27.454,26.239
			c0,0.677-0.549,1.227-1.227,1.227s-1.227-0.549-1.227-1.226c0-0.677,0.549-1.227,1.227-1.227
			C26.905,25.012,27.454,25.561,27.454,26.239L27.454,26.239z M27.504,26.239c0-0.705-0.572-1.276-1.277-1.276
			c-0.705,0-1.276,0.571-1.276,1.276c0,0.705,0.571,1.276,1.276,1.276C26.932,27.515,27.504,26.943,27.504,26.239L27.504,26.239z"/>
		<path clip-path="url(#SVGID_2_)" fill-rule="evenodd" clip-rule="evenodd" fill="#FF6600" d="M27.487,26.239
			c0,0.696-0.564,1.26-1.26,1.26c-0.696,0-1.26-0.564-1.26-1.26c0-0.696,0.564-1.26,1.26-1.26
			C26.923,24.979,27.487,25.543,27.487,26.239L27.487,26.239z M27.537,26.239c0-0.723-0.586-1.309-1.31-1.309
			c-0.723,0-1.309,0.586-1.309,1.31c0,0.723,0.586,1.31,1.31,1.309C26.951,27.548,27.537,26.962,27.537,26.239L27.537,26.239z"/>
		<path clip-path="url(#SVGID_2_)" fill-rule="evenodd" clip-rule="evenodd" fill="#FF6600" d="M27.52,26.239
			c0,0.714-0.579,1.293-1.293,1.293c-0.714,0-1.293-0.579-1.293-1.293s0.579-1.293,1.293-1.293
			C26.942,24.946,27.52,25.524,27.52,26.239L27.52,26.239z M27.57,26.239c0-0.742-0.601-1.342-1.343-1.342
			c-0.742,0-1.342,0.601-1.342,1.343c0,0.741,0.601,1.342,1.343,1.342S27.57,26.98,27.57,26.239L27.57,26.239z"/>
		<path clip-path="url(#SVGID_2_)" fill-rule="evenodd" clip-rule="evenodd" fill="#FF6600" d="M27.554,26.239
			c0,0.732-0.594,1.326-1.326,1.326c-0.732,0-1.326-0.594-1.326-1.326c0-0.733,0.594-1.326,1.326-1.326
			C26.96,24.912,27.554,25.506,27.554,26.239L27.554,26.239z M27.603,26.239c0-0.76-0.616-1.376-1.376-1.376
			c-0.76,0-1.376,0.616-1.376,1.376c0,0.76,0.616,1.376,1.376,1.376C26.987,27.614,27.603,26.998,27.603,26.239L27.603,26.239z"/>
		<path clip-path="url(#SVGID_2_)" fill-rule="evenodd" clip-rule="evenodd" fill="#FF6600" d="M27.587,26.239
			c0,0.751-0.609,1.359-1.359,1.359s-1.359-0.609-1.359-1.359c0-0.751,0.609-1.359,1.359-1.359
			C26.978,24.879,27.587,25.488,27.587,26.239L27.587,26.239z M27.636,26.239c0-0.778-0.631-1.409-1.409-1.409
			c-0.778,0-1.409,0.631-1.409,1.409c0,0.778,0.631,1.409,1.409,1.409S27.636,27.017,27.636,26.239L27.636,26.239z"/>
		<path clip-path="url(#SVGID_2_)" fill-rule="evenodd" clip-rule="evenodd" fill="#FF6600" d="M27.62,26.239
			c0,0.769-0.623,1.393-1.392,1.393s-1.392-0.623-1.393-1.392c0-0.769,0.624-1.392,1.392-1.393
			C26.996,24.846,27.62,25.469,27.62,26.239L27.62,26.239z M27.669,26.239c0-0.796-0.646-1.442-1.442-1.442
			c-0.796,0-1.442,0.646-1.442,1.442c0,0.797,0.646,1.442,1.442,1.442S27.669,27.035,27.669,26.239L27.669,26.239z"/>
		<path clip-path="url(#SVGID_2_)" fill-rule="evenodd" clip-rule="evenodd" fill="#FF6600" d="M27.653,26.239
			c0,0.787-0.638,1.426-1.426,1.426c-0.787,0-1.426-0.638-1.426-1.426c0-0.787,0.638-1.426,1.425-1.426
			C27.015,24.813,27.653,25.451,27.653,26.239L27.653,26.239z M27.703,26.239c0-0.815-0.66-1.475-1.475-1.475
			c-0.815,0-1.475,0.66-1.475,1.475c0,0.815,0.66,1.475,1.475,1.475C27.042,27.714,27.703,27.053,27.703,26.239L27.703,26.239z"/>
		<path clip-path="url(#SVGID_2_)" fill-rule="evenodd" clip-rule="evenodd" fill="#FF6600" d="M27.686,26.239
			c0,0.806-0.653,1.459-1.459,1.459c-0.806,0-1.459-0.653-1.459-1.459c0-0.806,0.653-1.459,1.458-1.459
			C27.033,24.78,27.686,25.433,27.686,26.239L27.686,26.239z M27.736,26.239c0-0.833-0.676-1.508-1.509-1.508
			s-1.508,0.675-1.508,1.509c0,0.833,0.676,1.508,1.509,1.508S27.736,27.072,27.736,26.239L27.736,26.239z"/>
		<path clip-path="url(#SVGID_2_)" fill-rule="evenodd" clip-rule="evenodd" fill="#FF6600" d="M27.719,26.239
			c0,0.824-0.668,1.492-1.492,1.492c-0.824,0-1.492-0.668-1.492-1.492c0-0.824,0.668-1.492,1.492-1.492
			C27.051,24.747,27.719,25.415,27.719,26.239L27.719,26.239z M27.769,26.239c0-0.851-0.69-1.542-1.542-1.542
			c-0.851,0-1.541,0.69-1.541,1.542c0,0.851,0.69,1.541,1.542,1.541S27.769,27.09,27.769,26.239L27.769,26.239z"/>
		<path clip-path="url(#SVGID_2_)" fill-rule="evenodd" clip-rule="evenodd" fill="#FF6600" d="M27.753,26.239
			c0,0.842-0.683,1.525-1.525,1.525s-1.525-0.683-1.525-1.525c0-0.842,0.683-1.525,1.525-1.525
			C27.07,24.713,27.753,25.396,27.753,26.239L27.753,26.239z M27.802,26.239c0-0.87-0.705-1.575-1.575-1.575
			c-0.87,0-1.575,0.705-1.575,1.575c0,0.87,0.705,1.575,1.575,1.575S27.802,27.108,27.802,26.239L27.802,26.239z"/>
		<path clip-path="url(#SVGID_2_)" fill-rule="evenodd" clip-rule="evenodd" fill="#FF6600" d="M27.786,26.239
			c0,0.861-0.698,1.558-1.558,1.558c-0.861,0-1.558-0.698-1.558-1.558s0.698-1.558,1.558-1.558
			C27.088,24.68,27.786,25.378,27.786,26.239L27.786,26.239z M27.835,26.239c0-0.888-0.72-1.608-1.608-1.608
			c-0.888,0-1.608,0.72-1.608,1.608c0,0.888,0.72,1.608,1.608,1.608S27.835,27.127,27.835,26.239L27.835,26.239z"/>
		<path clip-path="url(#SVGID_2_)" fill-rule="evenodd" clip-rule="evenodd" fill="#FF6600" d="M27.819,26.239
			c0,0.879-0.713,1.591-1.591,1.592c-0.879,0-1.591-0.713-1.591-1.591c0-0.879,0.712-1.591,1.591-1.591
			C27.106,24.647,27.819,25.36,27.819,26.239L27.819,26.239z M27.868,26.239c0-0.906-0.735-1.641-1.641-1.641
			c-0.906,0-1.641,0.735-1.641,1.641c0,0.906,0.735,1.641,1.641,1.641S27.868,27.145,27.868,26.239L27.868,26.239z"/>
		<path clip-path="url(#SVGID_2_)" fill-rule="evenodd" clip-rule="evenodd" fill="#FF6600" d="M27.852,26.239
			c0,0.897-0.727,1.625-1.625,1.625c-0.897,0-1.625-0.727-1.625-1.625c0-0.897,0.727-1.625,1.624-1.625S27.852,25.341,27.852,26.239
			L27.852,26.239z M27.902,26.239c0-0.925-0.75-1.674-1.674-1.674c-0.925,0-1.674,0.75-1.674,1.674c0,0.925,0.75,1.674,1.674,1.674
			S27.902,27.163,27.902,26.239L27.902,26.239z"/>
		<path clip-path="url(#SVGID_2_)" fill-rule="evenodd" clip-rule="evenodd" fill="#FF6600" d="M27.885,26.239
			c0,0.916-0.742,1.658-1.658,1.658c-0.916,0-1.658-0.742-1.658-1.657c0-0.916,0.742-1.658,1.657-1.658
			C27.143,24.581,27.885,25.323,27.885,26.239L27.885,26.239z M27.935,26.239c0-0.943-0.765-1.707-1.708-1.707
			c-0.943,0-1.707,0.765-1.707,1.708c0,0.943,0.764,1.707,1.708,1.707C27.17,27.946,27.935,27.182,27.935,26.239L27.935,26.239z"/>
		<path clip-path="url(#SVGID_2_)" fill-rule="evenodd" clip-rule="evenodd" fill="#FF6600" d="M27.918,26.239
			c0,0.934-0.757,1.691-1.691,1.691c-0.934,0-1.691-0.757-1.691-1.691c0-0.934,0.757-1.691,1.691-1.691
			C27.161,24.548,27.918,25.305,27.918,26.239L27.918,26.239z M27.968,26.239c0-0.961-0.779-1.74-1.741-1.74
			c-0.961,0-1.74,0.78-1.74,1.741c0,0.961,0.78,1.74,1.741,1.74C27.189,27.979,27.968,27.2,27.968,26.239L27.968,26.239z"/>
		<path clip-path="url(#SVGID_2_)" fill-rule="evenodd" clip-rule="evenodd" fill="#FF6600" d="M27.951,26.239
			c0,0.952-0.772,1.724-1.724,1.724c-0.952,0-1.724-0.772-1.724-1.724c0-0.952,0.772-1.724,1.724-1.724
			C27.179,24.515,27.951,25.286,27.951,26.239L27.951,26.239z M28.001,26.239c0-0.979-0.794-1.774-1.774-1.774
			c-0.979,0-1.774,0.794-1.774,1.774c0,0.98,0.794,1.774,1.774,1.774C27.207,28.012,28.001,27.218,28.001,26.239L28.001,26.239z"/>
		<path clip-path="url(#SVGID_2_)" fill-rule="evenodd" clip-rule="evenodd" fill="#FF6600" d="M27.984,26.239
			c0,0.971-0.787,1.757-1.757,1.757c-0.971,0-1.757-0.787-1.757-1.757c0-0.971,0.787-1.757,1.757-1.757
			C27.198,24.482,27.984,25.268,27.984,26.239L27.984,26.239z M28.034,26.239c0-0.998-0.809-1.807-1.807-1.807
			c-0.998,0-1.807,0.809-1.807,1.807c0,0.998,0.809,1.807,1.807,1.807C27.225,28.046,28.034,27.237,28.034,26.239L28.034,26.239z"/>
		<path clip-path="url(#SVGID_2_)" fill-rule="evenodd" clip-rule="evenodd" fill="#FF6600" d="M28.018,26.239
			c0,0.989-0.801,1.79-1.79,1.79c-0.989,0-1.79-0.801-1.79-1.79c0-0.989,0.801-1.79,1.79-1.79S28.018,25.25,28.018,26.239
			L28.018,26.239z M28.067,26.239c0-1.016-0.824-1.84-1.84-1.84c-1.016,0-1.84,0.824-1.84,1.84c0,1.016,0.824,1.84,1.84,1.84
			C27.244,28.079,28.067,27.255,28.067,26.239L28.067,26.239z"/>
		<path clip-path="url(#SVGID_2_)" fill-rule="evenodd" clip-rule="evenodd" fill="#FF6600" d="M28.051,26.239
			c0,1.007-0.816,1.824-1.823,1.824s-1.824-0.816-1.824-1.823c0-1.007,0.816-1.824,1.823-1.824
			C27.234,24.415,28.051,25.232,28.051,26.239L28.051,26.239z M28.101,26.239c0-1.034-0.839-1.873-1.873-1.873
			c-1.034,0-1.873,0.839-1.873,1.873c0,1.034,0.839,1.873,1.873,1.873C27.262,28.112,28.101,27.273,28.101,26.239L28.101,26.239z"/>
		<path clip-path="url(#SVGID_2_)" fill-rule="evenodd" clip-rule="evenodd" fill="#FF6600" d="M28.084,26.239
			c0,1.026-0.831,1.857-1.856,1.857c-1.025,0-1.857-0.831-1.857-1.856c0-1.025,0.831-1.857,1.856-1.857
			C27.253,24.382,28.084,25.213,28.084,26.239L28.084,26.239z M28.134,26.239c0-1.053-0.854-1.906-1.907-1.906
			c-1.053,0-1.906,0.853-1.906,1.906c0,1.053,0.854,1.906,1.906,1.906C27.28,28.145,28.134,27.291,28.134,26.239L28.134,26.239z"/>
		<path clip-path="url(#SVGID_2_)" fill-rule="evenodd" clip-rule="evenodd" fill="#FF6600" d="M28.117,26.239
			c0,1.044-0.846,1.89-1.89,1.89c-1.044,0-1.89-0.846-1.89-1.89c0-1.044,0.846-1.89,1.89-1.89
			C27.271,24.349,28.117,25.195,28.117,26.239L28.117,26.239z M28.167,26.239c0-1.071-0.869-1.939-1.94-1.939
			c-1.071,0-1.939,0.868-1.939,1.94c0,1.071,0.868,1.939,1.939,1.939C27.299,28.178,28.167,27.31,28.167,26.239L28.167,26.239z"/>
		<path clip-path="url(#SVGID_2_)" fill-rule="evenodd" clip-rule="evenodd" fill="#FF6600" d="M28.15,26.239
			c0,1.062-0.861,1.923-1.923,1.923s-1.923-0.861-1.923-1.923c0-1.062,0.861-1.923,1.923-1.923
			C27.289,24.316,28.15,25.177,28.15,26.239L28.15,26.239z M28.2,26.239c0-1.089-0.883-1.973-1.973-1.972
			c-1.089,0-1.972,0.883-1.972,1.973s0.883,1.973,1.973,1.973C27.317,28.211,28.2,27.328,28.2,26.239L28.2,26.239z"/>
		<path clip-path="url(#SVGID_2_)" fill-rule="evenodd" clip-rule="evenodd" fill="#FF6600" d="M28.183,26.239
			c0,1.08-0.876,1.956-1.956,1.956s-1.956-0.876-1.956-1.956c0-1.08,0.876-1.956,1.956-1.956S28.183,25.158,28.183,26.239
			L28.183,26.239z M28.233,26.239c0-1.108-0.898-2.005-2.006-2.005c-1.108,0-2.006,0.898-2.006,2.006
			c0,1.108,0.898,2.006,2.006,2.006C27.335,28.244,28.233,27.346,28.233,26.239L28.233,26.239z"/>
		<path clip-path="url(#SVGID_2_)" fill-rule="evenodd" clip-rule="evenodd" fill="#FF6600" d="M28.217,26.239
			c0,1.099-0.89,1.989-1.989,1.989c-1.099,0-1.989-0.89-1.989-1.989c0-1.099,0.891-1.989,1.989-1.989
			C27.326,24.249,28.217,25.14,28.217,26.239L28.217,26.239z M28.266,26.239c0-1.126-0.913-2.039-2.039-2.039
			c-1.126,0-2.039,0.913-2.039,2.039c0,1.126,0.913,2.039,2.039,2.039C27.353,28.277,28.266,27.365,28.266,26.239L28.266,26.239z"/>
		<path clip-path="url(#SVGID_2_)" fill-rule="evenodd" clip-rule="evenodd" fill="#FF6600" d="M28.25,26.239
			c0,1.117-0.905,2.023-2.022,2.023s-2.023-0.905-2.023-2.022c0-1.117,0.905-2.023,2.022-2.023
			C27.344,24.216,28.25,25.122,28.25,26.239L28.25,26.239z M28.299,26.239c0-1.144-0.928-2.072-2.072-2.072
			c-1.144,0-2.072,0.928-2.072,2.072c0,1.144,0.928,2.072,2.072,2.072C27.372,28.311,28.3,27.383,28.299,26.239L28.299,26.239z"/>
		<path clip-path="url(#SVGID_2_)" fill-rule="evenodd" clip-rule="evenodd" fill="#FF6600" d="M28.283,26.239
			c0,1.135-0.92,2.056-2.055,2.056c-1.135,0-2.056-0.92-2.056-2.055c0-1.135,0.92-2.056,2.055-2.056
			C27.362,24.183,28.283,25.103,28.283,26.239L28.283,26.239z M28.332,26.239c0-1.163-0.943-2.105-2.105-2.105
			c-1.162,0-2.105,0.942-2.105,2.105c0,1.163,0.943,2.105,2.105,2.105C27.39,28.344,28.333,27.401,28.332,26.239L28.332,26.239z"/>
		<path clip-path="url(#SVGID_2_)" fill-rule="evenodd" clip-rule="evenodd" fill="#FF6600" d="M28.316,26.239
			c0,1.154-0.935,2.089-2.089,2.089c-1.153,0-2.089-0.935-2.089-2.089c0-1.153,0.935-2.089,2.089-2.089
			C27.381,24.15,28.316,25.085,28.316,26.239L28.316,26.239z M28.366,26.239c0-1.181-0.957-2.138-2.138-2.138
			c-1.181,0-2.138,0.958-2.138,2.139c0,1.181,0.958,2.138,2.138,2.138C27.408,28.377,28.366,27.42,28.366,26.239L28.366,26.239z"/>
		<path clip-path="url(#SVGID_2_)" fill-rule="evenodd" clip-rule="evenodd" fill="#FF6600" d="M28.349,26.239
			c0,1.172-0.95,2.122-2.122,2.122s-2.122-0.95-2.122-2.122c0-1.172,0.95-2.122,2.122-2.122
			C27.399,24.117,28.349,25.067,28.349,26.239L28.349,26.239z M28.399,26.239c0-1.199-0.972-2.171-2.172-2.171
			c-1.199,0-2.171,0.972-2.171,2.172c0,1.199,0.972,2.171,2.172,2.171S28.399,27.438,28.399,26.239L28.399,26.239z"/>
		<path clip-path="url(#SVGID_2_)" fill-rule="evenodd" clip-rule="evenodd" fill="#FF6600" d="M28.382,26.239
			c0,1.19-0.965,2.155-2.155,2.155c-1.19,0-2.155-0.965-2.155-2.155c0-1.19,0.965-2.155,2.155-2.155
			C27.417,24.084,28.382,25.049,28.382,26.239L28.382,26.239z M28.432,26.239c0-1.217-0.987-2.205-2.205-2.205
			c-1.217,0-2.204,0.987-2.204,2.205c0,1.217,0.987,2.204,2.205,2.204C27.445,28.443,28.432,27.456,28.432,26.239L28.432,26.239z"/>
		<path clip-path="url(#SVGID_2_)" fill-rule="evenodd" clip-rule="evenodd" fill="#FF6600" d="M28.416,26.239
			c0,1.208-0.98,2.188-2.188,2.188s-2.188-0.98-2.188-2.188c0-1.208,0.98-2.188,2.188-2.188
			C27.436,24.05,28.416,25.03,28.416,26.239L28.416,26.239z M28.465,26.239c0-1.236-1.002-2.238-2.238-2.238
			c-1.236,0-2.238,1.002-2.238,2.238c0,1.236,1.002,2.238,2.238,2.238C27.463,28.476,28.465,27.474,28.465,26.239L28.465,26.239z"/>
		<path clip-path="url(#SVGID_2_)" fill-rule="evenodd" clip-rule="evenodd" fill="#FF6600" d="M28.449,26.239
			c0,1.227-0.994,2.221-2.221,2.221s-2.221-0.994-2.221-2.221c0-1.227,0.994-2.221,2.221-2.222
			C27.454,24.017,28.449,25.012,28.449,26.239L28.449,26.239z M28.498,26.239c0-1.254-1.017-2.271-2.271-2.271
			c-1.254,0-2.271,1.017-2.271,2.271c0,1.254,1.017,2.271,2.271,2.271C27.482,28.51,28.498,27.493,28.498,26.239L28.498,26.239z"/>
		<path clip-path="url(#SVGID_2_)" fill-rule="evenodd" clip-rule="evenodd" fill="#FF6600" d="M28.482,26.239
			c0,1.245-1.009,2.255-2.254,2.255s-2.254-1.009-2.254-2.254c0-1.245,1.009-2.254,2.254-2.254
			C27.472,23.984,28.482,24.994,28.482,26.239L28.482,26.239z M28.531,26.239c0-1.273-1.032-2.304-2.304-2.304
			c-1.272,0-2.304,1.032-2.304,2.304c0,1.272,1.032,2.304,2.304,2.304C27.5,28.543,28.531,27.511,28.531,26.239L28.531,26.239z"/>
		<path clip-path="url(#SVGID_2_)" fill-rule="evenodd" clip-rule="evenodd" fill="#FF6600" d="M28.515,26.239
			c0,1.263-1.024,2.288-2.288,2.288c-1.263,0-2.288-1.024-2.288-2.288c0-1.263,1.024-2.288,2.287-2.288
			C27.491,23.951,28.515,24.975,28.515,26.239L28.515,26.239z M28.565,26.239c0-1.291-1.047-2.337-2.337-2.337
			c-1.291,0-2.337,1.047-2.337,2.338c0,1.291,1.047,2.337,2.337,2.337S28.565,27.529,28.565,26.239L28.565,26.239z"/>
		<path clip-path="url(#SVGID_2_)" fill-rule="evenodd" clip-rule="evenodd" fill="#FF6600" d="M28.548,26.239
			c0,1.282-1.039,2.321-2.321,2.321c-1.282,0-2.321-1.039-2.321-2.321c0-1.282,1.039-2.321,2.32-2.321
			C27.509,23.918,28.548,24.957,28.548,26.239L28.548,26.239z M28.598,26.239c0-1.309-1.061-2.37-2.371-2.37
			c-1.309,0-2.37,1.062-2.37,2.371c0,1.309,1.062,2.37,2.371,2.37C27.537,28.609,28.598,27.548,28.598,26.239L28.598,26.239z"/>
		<path clip-path="url(#SVGID_2_)" fill-rule="evenodd" clip-rule="evenodd" fill="#FF6600" d="M28.581,26.239
			c0,1.3-1.054,2.354-2.354,2.354c-1.3,0-2.354-1.054-2.354-2.354c0-1.3,1.054-2.354,2.354-2.354
			C27.527,23.885,28.581,24.939,28.581,26.239L28.581,26.239z M28.631,26.239c0-1.327-1.076-2.404-2.404-2.404
			s-2.403,1.076-2.403,2.404c0,1.327,1.076,2.403,2.404,2.403C27.555,28.642,28.631,27.566,28.631,26.239L28.631,26.239z"/>
		<path clip-path="url(#SVGID_2_)" fill-rule="evenodd" clip-rule="evenodd" fill="#FF6600" d="M28.615,26.239
			c0,1.318-1.069,2.387-2.387,2.387c-1.318,0-2.387-1.069-2.387-2.387c0-1.318,1.069-2.387,2.387-2.387
			C27.546,23.851,28.614,24.92,28.615,26.239L28.615,26.239z M28.664,26.239c0-1.346-1.091-2.437-2.437-2.437
			c-1.346,0-2.437,1.091-2.437,2.437c0,1.346,1.091,2.437,2.437,2.437S28.664,27.584,28.664,26.239L28.664,26.239z"/>
		<path clip-path="url(#SVGID_2_)" fill-rule="evenodd" clip-rule="evenodd" fill="#FF6600" d="M28.648,26.239
			c0,1.337-1.084,2.42-2.42,2.42c-1.337,0-2.42-1.083-2.42-2.42c0-1.337,1.083-2.42,2.42-2.42
			C27.564,23.819,28.647,24.902,28.648,26.239L28.648,26.239z M28.697,26.239c0-1.364-1.106-2.47-2.47-2.47
			c-1.364,0-2.47,1.106-2.47,2.47c0,1.364,1.106,2.47,2.47,2.47S28.697,27.602,28.697,26.239L28.697,26.239z"/>
		<path clip-path="url(#SVGID_2_)" fill-rule="evenodd" clip-rule="evenodd" fill="#FF6600" d="M28.681,26.239
			c0,1.355-1.098,2.453-2.453,2.453c-1.355,0-2.453-1.098-2.453-2.453c0-1.355,1.098-2.453,2.453-2.453
			C27.582,23.785,28.681,24.884,28.681,26.239L28.681,26.239z M28.73,26.239c0-1.383-1.121-2.503-2.503-2.503
			c-1.382,0-2.503,1.121-2.503,2.503c0,1.382,1.121,2.503,2.503,2.503C27.61,28.742,28.73,27.621,28.73,26.239L28.73,26.239z"/>
		<path clip-path="url(#SVGID_2_)" fill-rule="evenodd" clip-rule="evenodd" fill="#FF6600" d="M28.714,26.239
			c0,1.373-1.113,2.487-2.486,2.487c-1.373,0-2.487-1.113-2.487-2.486c0-1.373,1.113-2.487,2.486-2.487
			C27.601,23.752,28.714,24.865,28.714,26.239L28.714,26.239z M28.764,26.239c0-1.401-1.136-2.536-2.536-2.536
			c-1.401,0-2.536,1.136-2.536,2.536c0,1.401,1.136,2.536,2.536,2.536C27.628,28.775,28.764,27.639,28.764,26.239L28.764,26.239z"/>
		<path clip-path="url(#SVGID_2_)" fill-rule="evenodd" clip-rule="evenodd" fill="#FF6600" d="M28.747,26.239
			c0,1.392-1.128,2.52-2.519,2.52c-1.392,0-2.52-1.128-2.52-2.519c0-1.392,1.128-2.52,2.519-2.52
			C27.619,23.719,28.747,24.847,28.747,26.239L28.747,26.239z M28.797,26.239c0-1.419-1.151-2.569-2.57-2.569
			c-1.419,0-2.569,1.151-2.569,2.57c0,1.419,1.151,2.569,2.57,2.569C27.647,28.808,28.797,27.658,28.797,26.239L28.797,26.239z"/>
		<path clip-path="url(#SVGID_2_)" fill-rule="evenodd" clip-rule="evenodd" fill="#FF6600" d="M28.78,26.239
			c0,1.41-1.143,2.553-2.553,2.553c-1.41,0-2.553-1.143-2.553-2.553c0-1.41,1.143-2.553,2.553-2.553
			C27.637,23.686,28.78,24.828,28.78,26.239L28.78,26.239z M28.83,26.239c0-1.437-1.165-2.602-2.603-2.602
			c-1.437,0-2.602,1.165-2.602,2.603c0,1.437,1.165,2.602,2.602,2.602S28.83,27.676,28.83,26.239L28.83,26.239z"/>
		<path clip-path="url(#SVGID_2_)" fill-rule="evenodd" clip-rule="evenodd" fill="#FF6600" d="M28.813,26.239
			c0,1.428-1.158,2.586-2.586,2.586s-2.586-1.158-2.586-2.586c0-1.428,1.158-2.586,2.586-2.586
			C27.656,23.653,28.813,24.81,28.813,26.239L28.813,26.239z M28.863,26.239c0-1.456-1.18-2.636-2.636-2.635
			c-1.456,0-2.636,1.18-2.635,2.636c0,1.456,1.18,2.636,2.636,2.636C27.683,28.874,28.863,27.694,28.863,26.239L28.863,26.239z"/>
		<path clip-path="url(#SVGID_2_)" fill-rule="evenodd" clip-rule="evenodd" fill="#FF6600" d="M28.846,26.239
			c0,1.446-1.172,2.619-2.619,2.619c-1.447,0-2.619-1.172-2.619-2.619c0-1.447,1.172-2.619,2.619-2.619
			C27.674,23.62,28.846,24.792,28.846,26.239L28.846,26.239z M28.896,26.239c0-1.474-1.195-2.669-2.669-2.669
			c-1.474,0-2.669,1.195-2.669,2.669c0,1.474,1.195,2.669,2.669,2.669C27.702,28.907,28.896,27.712,28.896,26.239L28.896,26.239z"/>
		<path clip-path="url(#SVGID_2_)" fill-rule="evenodd" clip-rule="evenodd" fill="#FF6600" d="M28.88,26.239
			c0,1.465-1.187,2.652-2.652,2.652c-1.465,0-2.652-1.187-2.652-2.652c0-1.465,1.187-2.652,2.652-2.652
			C27.692,23.586,28.88,24.774,28.88,26.239L28.88,26.239z M28.929,26.239c0-1.492-1.21-2.702-2.702-2.702
			c-1.492,0-2.702,1.21-2.702,2.702c0,1.492,1.21,2.702,2.702,2.702C27.72,28.94,28.929,27.731,28.929,26.239L28.929,26.239z"/>
		<path clip-path="url(#SVGID_2_)" fill-rule="evenodd" clip-rule="evenodd" fill="#FF6600" d="M28.913,26.239
			c0,1.483-1.202,2.685-2.685,2.685c-1.483,0-2.686-1.202-2.686-2.685c0-1.483,1.202-2.686,2.685-2.686
			C27.71,23.553,28.913,24.755,28.913,26.239L28.913,26.239z M28.963,26.239c0-1.511-1.225-2.735-2.735-2.735
			c-1.511,0-2.735,1.225-2.735,2.735c0,1.51,1.225,2.735,2.735,2.735C27.738,28.974,28.963,27.749,28.963,26.239L28.963,26.239z"/>
		<path clip-path="url(#SVGID_2_)" fill-rule="evenodd" clip-rule="evenodd" fill="#FF6600" d="M28.946,26.239
			c0,1.502-1.217,2.719-2.718,2.719c-1.501,0-2.719-1.217-2.719-2.718c0-1.502,1.217-2.719,2.718-2.719
			C27.729,23.52,28.946,24.737,28.946,26.239L28.946,26.239z M28.996,26.239c0-1.529-1.24-2.768-2.769-2.768
			c-1.529,0-2.768,1.239-2.768,2.768c0,1.529,1.24,2.768,2.768,2.768C27.756,29.007,28.996,27.768,28.996,26.239L28.996,26.239z"/>
		<path clip-path="url(#SVGID_2_)" fill-rule="evenodd" clip-rule="evenodd" fill="#FF6600" d="M28.979,26.239
			c0,1.52-1.232,2.752-2.752,2.752s-2.752-1.232-2.752-2.752c0-1.52,1.232-2.752,2.752-2.752
			C27.747,23.487,28.979,24.719,28.979,26.239L28.979,26.239z M29.029,26.239c0-1.547-1.255-2.802-2.802-2.801
			c-1.547,0-2.801,1.254-2.801,2.802c0,1.547,1.254,2.801,2.801,2.801C27.775,29.04,29.029,27.786,29.029,26.239L29.029,26.239z"/>
		<path clip-path="url(#SVGID_2_)" fill-rule="evenodd" clip-rule="evenodd" fill="#FF6600" d="M29.012,26.239
			c0,1.538-1.247,2.785-2.785,2.785s-2.785-1.247-2.785-2.785c0-1.538,1.247-2.785,2.785-2.785
			C27.765,23.454,29.012,24.7,29.012,26.239L29.012,26.239z M29.062,26.239c0-1.566-1.269-2.834-2.835-2.834
			c-1.566,0-2.834,1.269-2.834,2.835c0,1.566,1.269,2.835,2.835,2.834C27.793,29.073,29.062,27.804,29.062,26.239L29.062,26.239z"/>
		<path clip-path="url(#SVGID_2_)" fill-rule="evenodd" clip-rule="evenodd" fill="#FF6600" d="M29.045,26.239
			c0,1.557-1.261,2.818-2.818,2.818c-1.556,0-2.818-1.261-2.818-2.818c0-1.556,1.262-2.818,2.818-2.818
			C27.784,23.421,29.045,24.682,29.045,26.239L29.045,26.239z M29.095,26.239c0-1.584-1.284-2.868-2.868-2.868
			c-1.584,0-2.868,1.284-2.868,2.868c0,1.584,1.284,2.868,2.868,2.867C27.811,29.106,29.095,27.822,29.095,26.239L29.095,26.239z"/>
		<path clip-path="url(#SVGID_2_)" fill-rule="evenodd" clip-rule="evenodd" fill="#FF6600" d="M29.079,26.239
			c0,1.575-1.276,2.851-2.851,2.851c-1.575,0-2.851-1.276-2.851-2.851c0-1.575,1.276-2.851,2.851-2.851
			C27.802,23.387,29.079,24.664,29.079,26.239L29.079,26.239z M29.128,26.239c0-1.602-1.299-2.901-2.901-2.901
			c-1.602,0-2.901,1.299-2.901,2.901c0,1.602,1.299,2.901,2.901,2.901C27.83,29.139,29.128,27.841,29.128,26.239L29.128,26.239z"/>
		<path clip-path="url(#SVGID_2_)" fill-rule="evenodd" clip-rule="evenodd" fill="#FF6600" d="M29.112,26.239
			c0,1.593-1.291,2.884-2.884,2.884c-1.593,0-2.884-1.291-2.885-2.884c0-1.593,1.291-2.884,2.884-2.885
			C27.82,23.354,29.112,24.646,29.112,26.239L29.112,26.239z M29.161,26.239c0-1.62-1.314-2.934-2.934-2.934
			c-1.62,0-2.934,1.314-2.934,2.934c0,1.62,1.314,2.934,2.934,2.934C27.848,29.173,29.162,27.859,29.161,26.239L29.161,26.239z"/>
		<path clip-path="url(#SVGID_2_)" fill-rule="evenodd" clip-rule="evenodd" fill="#FF6600" d="M29.145,26.239
			c0,1.611-1.306,2.918-2.917,2.918c-1.611,0-2.917-1.306-2.918-2.917c0-1.611,1.306-2.917,2.917-2.918
			C27.838,23.321,29.145,24.627,29.145,26.239L29.145,26.239z M29.195,26.239c0-1.639-1.329-2.967-2.967-2.967
			c-1.639,0-2.967,1.329-2.967,2.967c0,1.639,1.329,2.967,2.967,2.967C27.866,29.206,29.195,27.877,29.195,26.239L29.195,26.239z"/>
		<path clip-path="url(#SVGID_2_)" fill-rule="evenodd" clip-rule="evenodd" fill="#FF6600" d="M29.178,26.239
			c0,1.63-1.321,2.951-2.951,2.951s-2.951-1.321-2.951-2.951c0-1.63,1.321-2.951,2.951-2.951
			C27.857,23.288,29.178,24.609,29.178,26.239L29.178,26.239z M29.228,26.239c0-1.657-1.343-3-3-3c-1.657,0-3,1.343-3,3
			c0,1.657,1.343,3,3,3S29.228,27.896,29.228,26.239L29.228,26.239z"/>
		<path clip-path="url(#SVGID_2_)" fill-rule="evenodd" clip-rule="evenodd" fill="#FF6600" d="M29.211,26.239
			c0,1.648-1.336,2.984-2.984,2.984c-1.648,0-2.984-1.336-2.984-2.984c0-1.648,1.336-2.984,2.983-2.984
			C27.875,23.255,29.211,24.591,29.211,26.239L29.211,26.239z M29.261,26.239c0-1.675-1.358-3.033-3.034-3.033
			c-1.675,0-3.033,1.358-3.033,3.034c0,1.675,1.358,3.033,3.034,3.033S29.261,27.914,29.261,26.239L29.261,26.239z"/>
		<path clip-path="url(#SVGID_2_)" fill-rule="evenodd" clip-rule="evenodd" fill="#FF6600" d="M29.244,26.239
			c0,1.666-1.351,3.017-3.017,3.017c-1.666,0-3.017-1.351-3.017-3.017c0-1.666,1.35-3.017,3.017-3.017
			C27.893,23.222,29.244,24.572,29.244,26.239L29.244,26.239z M29.294,26.239c0-1.694-1.373-3.067-3.067-3.067
			c-1.694,0-3.067,1.373-3.067,3.067c0,1.694,1.373,3.066,3.067,3.066S29.294,27.932,29.294,26.239L29.294,26.239z"/>
		<path clip-path="url(#SVGID_2_)" fill-rule="evenodd" clip-rule="evenodd" fill="#FF6600" d="M29.278,26.239
			c0,1.685-1.365,3.05-3.05,3.05c-1.684,0-3.05-1.365-3.05-3.05c0-1.685,1.365-3.05,3.05-3.05
			C27.912,23.188,29.277,24.554,29.278,26.239L29.278,26.239z M29.327,26.239c0-1.712-1.388-3.1-3.1-3.1c-1.712,0-3.1,1.388-3.1,3.1
			c0,1.712,1.388,3.1,3.1,3.1C27.94,29.338,29.327,27.951,29.327,26.239L29.327,26.239z"/>
		<path clip-path="url(#SVGID_2_)" fill-rule="evenodd" clip-rule="evenodd" fill="#FF6600" d="M29.311,26.239
			c0,1.703-1.38,3.083-3.083,3.083c-1.703,0-3.083-1.38-3.083-3.083c0-1.703,1.38-3.083,3.083-3.083
			C27.93,23.155,29.31,24.536,29.311,26.239L29.311,26.239z M29.36,26.239c0-1.73-1.403-3.133-3.133-3.133s-3.133,1.403-3.133,3.133
			c0,1.73,1.403,3.133,3.133,3.133C27.958,29.372,29.36,27.969,29.36,26.239L29.36,26.239z"/>
		<path clip-path="url(#SVGID_2_)" fill-rule="evenodd" clip-rule="evenodd" fill="#FF6600" d="M29.344,26.239
			c0,1.721-1.395,3.116-3.116,3.117c-1.721,0-3.116-1.395-3.116-3.116c0-1.721,1.395-3.116,3.116-3.116
			C27.948,23.122,29.344,24.517,29.344,26.239L29.344,26.239z M29.393,26.239c0-1.749-1.418-3.166-3.166-3.166
			c-1.749,0-3.166,1.418-3.166,3.166c0,1.749,1.418,3.166,3.166,3.166S29.393,27.987,29.393,26.239L29.393,26.239z"/>
		<path clip-path="url(#SVGID_2_)" fill-rule="evenodd" clip-rule="evenodd" fill="#FF6600" d="M29.377,26.239
			c0,1.74-1.41,3.15-3.15,3.15c-1.739,0-3.15-1.41-3.15-3.15c0-1.739,1.41-3.15,3.149-3.15
			C27.967,23.089,29.377,24.499,29.377,26.239L29.377,26.239z M29.427,26.239c0-1.767-1.433-3.199-3.199-3.199
			c-1.767,0-3.199,1.433-3.199,3.2c0,1.767,1.433,3.199,3.199,3.199S29.427,28.005,29.427,26.239L29.427,26.239z"/>
		<path clip-path="url(#SVGID_2_)" fill-rule="evenodd" clip-rule="evenodd" fill="#FF6600" d="M29.41,26.239
			c0,1.758-1.425,3.183-3.183,3.183c-1.758,0-3.183-1.425-3.183-3.183c0-1.758,1.425-3.183,3.182-3.183
			C27.985,23.056,29.41,24.481,29.41,26.239L29.41,26.239z M29.46,26.239c0-1.785-1.447-3.232-3.233-3.232
			c-1.785,0-3.232,1.447-3.232,3.233c0,1.785,1.447,3.232,3.233,3.232C28.013,29.471,29.46,28.024,29.46,26.239L29.46,26.239z"/>
		<path clip-path="url(#SVGID_2_)" fill-rule="evenodd" clip-rule="evenodd" fill="#FF6600" d="M29.443,26.239
			c0,1.776-1.44,3.216-3.216,3.216c-1.776,0-3.216-1.439-3.216-3.216c0-1.776,1.44-3.216,3.216-3.216
			C28.003,23.023,29.443,24.463,29.443,26.239L29.443,26.239z M29.493,26.239c0-1.803-1.462-3.266-3.266-3.266
			c-1.803,0-3.265,1.462-3.265,3.266c0,1.804,1.462,3.265,3.266,3.265C28.031,29.504,29.493,28.042,29.493,26.239L29.493,26.239z"/>
		<path clip-path="url(#SVGID_2_)" fill-rule="evenodd" clip-rule="evenodd" fill="#FF6600" d="M29.476,26.239
			c0,1.794-1.454,3.249-3.249,3.249c-1.794,0-3.249-1.454-3.249-3.249c0-1.794,1.454-3.249,3.249-3.249
			C28.022,22.99,29.476,24.444,29.476,26.239L29.476,26.239z M29.526,26.239c0-1.822-1.477-3.299-3.299-3.299
			c-1.822,0-3.299,1.477-3.299,3.299c0,1.822,1.477,3.299,3.299,3.299C28.049,29.537,29.526,28.06,29.526,26.239L29.526,26.239z"/>
		<path clip-path="url(#SVGID_2_)" fill-rule="evenodd" clip-rule="evenodd" fill="#FF6600" d="M29.509,26.239
			c0,1.813-1.469,3.282-3.282,3.282c-1.813,0-3.282-1.469-3.282-3.282c0-1.813,1.469-3.282,3.282-3.282S29.509,24.426,29.509,26.239
			L29.509,26.239z M29.559,26.239c0-1.84-1.492-3.332-3.332-3.332c-1.84,0-3.332,1.492-3.332,3.332c0,1.84,1.492,3.332,3.332,3.332
			C28.068,29.571,29.559,28.079,29.559,26.239L29.559,26.239z"/>
		<path clip-path="url(#SVGID_2_)" fill-rule="evenodd" clip-rule="evenodd" fill="#FF6600" d="M29.543,26.239
			c0,1.831-1.484,3.315-3.315,3.315c-1.831,0-3.315-1.484-3.315-3.315c0-1.831,1.484-3.315,3.315-3.315
			C28.058,22.923,29.543,24.408,29.543,26.239L29.543,26.239z M29.592,26.239c0-1.858-1.507-3.365-3.365-3.365
			c-1.858,0-3.365,1.507-3.365,3.365c0,1.858,1.507,3.365,3.365,3.365C28.086,29.603,29.592,28.097,29.592,26.239L29.592,26.239z"/>
		<path clip-path="url(#SVGID_2_)" fill-rule="evenodd" clip-rule="evenodd" fill="#FF6600" d="M29.576,26.239
			c0,1.849-1.499,3.349-3.348,3.349c-1.849,0-3.349-1.499-3.349-3.348c0-1.849,1.499-3.349,3.348-3.349S29.576,24.389,29.576,26.239
			L29.576,26.239z M29.626,26.239c0-1.877-1.522-3.398-3.398-3.398c-1.877,0-3.398,1.522-3.398,3.399
			c0,1.877,1.521,3.398,3.398,3.398C28.104,29.637,29.626,28.115,29.626,26.239L29.626,26.239z"/>
		<path clip-path="url(#SVGID_2_)" fill-rule="evenodd" clip-rule="evenodd" fill="#FF6600" d="M29.609,26.239
			c0,1.868-1.514,3.382-3.381,3.382c-1.867,0-3.382-1.514-3.382-3.381c0-1.868,1.514-3.382,3.381-3.382
			C28.095,22.857,29.609,24.371,29.609,26.239L29.609,26.239z M29.659,26.239c0-1.895-1.536-3.431-3.432-3.431
			c-1.895,0-3.431,1.536-3.431,3.431c0,1.895,1.536,3.431,3.431,3.431C28.123,29.67,29.659,28.134,29.659,26.239L29.659,26.239z"/>
		<path clip-path="url(#SVGID_2_)" fill-rule="evenodd" clip-rule="evenodd" fill="#FF6600" d="M29.642,26.239
			c0,1.886-1.529,3.415-3.415,3.415c-1.886,0-3.415-1.529-3.415-3.415c0-1.886,1.529-3.415,3.415-3.415
			C28.113,22.824,29.642,24.353,29.642,26.239L29.642,26.239z M29.692,26.239c0-1.913-1.551-3.465-3.465-3.464
			c-1.913,0-3.464,1.551-3.464,3.465c0,1.913,1.551,3.464,3.465,3.464C28.141,29.703,29.692,28.152,29.692,26.239L29.692,26.239z"/>
		<path clip-path="url(#SVGID_2_)" fill-rule="evenodd" clip-rule="evenodd" fill="#FF6600" d="M29.675,26.239
			c0,1.904-1.543,3.448-3.448,3.448c-1.904,0-3.448-1.543-3.448-3.448c0-1.904,1.543-3.448,3.448-3.448S29.675,24.334,29.675,26.239
			L29.675,26.239z M29.725,26.239c0-1.932-1.566-3.498-3.498-3.497c-1.932,0-3.498,1.566-3.497,3.498
			c0,1.932,1.566,3.498,3.498,3.498C28.159,29.736,29.725,28.17,29.725,26.239L29.725,26.239z"/>
		<path clip-path="url(#SVGID_2_)" fill-rule="evenodd" clip-rule="evenodd" fill="#FF6600" d="M29.708,26.239
			c0,1.922-1.558,3.481-3.481,3.481c-1.922,0-3.481-1.558-3.481-3.481c0-1.922,1.558-3.481,3.481-3.481
			C28.15,22.758,29.708,24.316,29.708,26.239L29.708,26.239z M29.758,26.239c0-1.95-1.581-3.531-3.531-3.531
			c-1.95,0-3.531,1.581-3.531,3.531c0,1.95,1.581,3.531,3.531,3.531C28.177,29.769,29.758,28.188,29.758,26.239L29.758,26.239z"/>
		<path clip-path="url(#SVGID_2_)" fill-rule="evenodd" clip-rule="evenodd" fill="#FF6600" d="M29.742,26.239
			c0,1.941-1.573,3.514-3.514,3.514s-3.514-1.573-3.514-3.514c0-1.941,1.573-3.514,3.514-3.514
			C28.168,22.724,29.742,24.298,29.742,26.239L29.742,26.239z M29.791,26.239c0-1.968-1.596-3.564-3.564-3.564
			c-1.968,0-3.564,1.596-3.564,3.564c0,1.968,1.596,3.564,3.564,3.564C28.196,29.802,29.791,28.207,29.791,26.239L29.791,26.239z"/>
		<path clip-path="url(#SVGID_2_)" fill-rule="evenodd" clip-rule="evenodd" fill="#FF6600" d="M29.775,26.239
			c0,1.959-1.588,3.548-3.547,3.548c-1.959,0-3.547-1.588-3.548-3.547c0-1.959,1.588-3.548,3.547-3.548
			C28.187,22.691,29.775,24.279,29.775,26.239L29.775,26.239z M29.825,26.239c0-1.987-1.611-3.597-3.597-3.597
			c-1.987,0-3.597,1.611-3.597,3.597c0,1.987,1.611,3.597,3.597,3.597C28.214,29.836,29.825,28.225,29.825,26.239L29.825,26.239z"/>
		<path clip-path="url(#SVGID_2_)" fill-rule="evenodd" clip-rule="evenodd" fill="#FF6600" d="M29.808,26.239
			c0,1.977-1.603,3.581-3.58,3.581s-3.58-1.603-3.581-3.58c0-1.978,1.603-3.58,3.58-3.581
			C28.205,22.658,29.808,24.261,29.808,26.239L29.808,26.239z M29.858,26.239c0-2.005-1.625-3.63-3.63-3.63
			c-2.005,0-3.63,1.625-3.63,3.63c0,2.005,1.625,3.63,3.63,3.63C28.232,29.869,29.858,28.243,29.858,26.239L29.858,26.239z"/>
		<path clip-path="url(#SVGID_2_)" fill-rule="evenodd" clip-rule="evenodd" fill="#FF6600" d="M29.841,26.239
			c0,1.996-1.618,3.614-3.614,3.614c-1.996,0-3.614-1.618-3.614-3.614c0-1.996,1.618-3.614,3.614-3.614
			C28.223,22.625,29.841,24.243,29.841,26.239L29.841,26.239z M29.891,26.239c0-2.023-1.64-3.663-3.663-3.663
			c-2.023,0-3.663,1.64-3.663,3.664c0,2.023,1.64,3.663,3.663,3.663C28.251,29.902,29.891,28.262,29.891,26.239L29.891,26.239z"/>
		<path clip-path="url(#SVGID_2_)" fill-rule="evenodd" clip-rule="evenodd" fill="#FF6600" d="M29.874,26.239
			c0,2.014-1.632,3.647-3.647,3.647c-2.014,0-3.647-1.633-3.647-3.647c0-2.014,1.633-3.647,3.647-3.647
			C28.241,22.592,29.874,24.224,29.874,26.239L29.874,26.239z M29.924,26.239c0-2.042-1.655-3.696-3.697-3.696
			c-2.042,0-3.696,1.655-3.696,3.697c0,2.042,1.655,3.697,3.697,3.696C28.269,29.935,29.924,28.28,29.924,26.239L29.924,26.239z"/>
		<path clip-path="url(#SVGID_2_)" fill-rule="evenodd" clip-rule="evenodd" fill="#FF6600" d="M29.907,26.239
			c0,2.032-1.648,3.68-3.68,3.68s-3.68-1.648-3.68-3.68c0-2.032,1.647-3.68,3.68-3.68C28.26,22.559,29.907,24.206,29.907,26.239
			L29.907,26.239z M29.957,26.239c0-2.06-1.67-3.73-3.73-3.73c-2.06,0-3.73,1.67-3.73,3.73c0,2.06,1.67,3.73,3.73,3.729
			C28.287,29.968,29.957,28.298,29.957,26.239L29.957,26.239z"/>
		<path clip-path="url(#SVGID_2_)" fill-rule="evenodd" clip-rule="evenodd" fill="#FF6600" d="M29.941,26.239
			c0,2.051-1.662,3.713-3.713,3.713c-2.051,0-3.713-1.662-3.713-3.713c0-2.051,1.663-3.713,3.713-3.714
			C28.278,22.525,29.941,24.188,29.941,26.239L29.941,26.239z M29.99,26.239c0-2.078-1.685-3.763-3.763-3.763
			s-3.763,1.685-3.763,3.763c0,2.078,1.685,3.763,3.763,3.763C28.306,30.002,29.99,28.317,29.99,26.239L29.99,26.239z"/>
		<path clip-path="url(#SVGID_2_)" fill-rule="evenodd" clip-rule="evenodd" fill="#FF6600" d="M29.974,26.239
			c0,2.069-1.677,3.746-3.746,3.747c-2.069,0-3.746-1.677-3.746-3.746c0-2.069,1.677-3.746,3.746-3.747
			C28.296,22.492,29.973,24.169,29.974,26.239L29.974,26.239z M30.023,26.239c0-2.096-1.7-3.796-3.796-3.796s-3.796,1.7-3.796,3.796
			c0,2.096,1.7,3.796,3.796,3.796C28.324,30.035,30.024,28.335,30.023,26.239L30.023,26.239z"/>
		<path clip-path="url(#SVGID_2_)" fill-rule="evenodd" clip-rule="evenodd" fill="#FF6600" d="M30.007,26.239
			c0,2.087-1.692,3.779-3.779,3.78c-2.087,0-3.779-1.692-3.779-3.779c0-2.087,1.692-3.779,3.779-3.78
			C28.315,22.459,30.007,24.151,30.007,26.239L30.007,26.239z M30.057,26.239c0-2.115-1.714-3.829-3.829-3.829
			c-2.115,0-3.829,1.715-3.829,3.829c0,2.115,1.715,3.829,3.829,3.829C28.342,30.068,30.057,28.353,30.057,26.239L30.057,26.239z"/>
		<path clip-path="url(#SVGID_2_)" fill-rule="evenodd" clip-rule="evenodd" fill="#FF6600" d="M30.04,26.239
			c0,2.106-1.707,3.813-3.813,3.813c-2.106,0-3.813-1.707-3.813-3.813c0-2.106,1.707-3.813,3.812-3.813
			C28.333,22.426,30.04,24.133,30.04,26.239L30.04,26.239z M30.09,26.239c0-2.133-1.729-3.862-3.863-3.862s-3.862,1.729-3.862,3.863
			c0,2.133,1.729,3.862,3.862,3.862S30.09,28.372,30.09,26.239L30.09,26.239z"/>
		<path clip-path="url(#SVGID_2_)" fill-rule="evenodd" clip-rule="evenodd" fill="#FF6600" d="M30.073,26.239
			c0,2.124-1.722,3.846-3.846,3.846c-2.124,0-3.846-1.722-3.846-3.846c0-2.124,1.721-3.846,3.845-3.846
			C28.351,22.393,30.073,24.114,30.073,26.239L30.073,26.239z M30.123,26.239c0-2.152-1.744-3.895-3.896-3.895
			c-2.151,0-3.895,1.744-3.895,3.896c0,2.151,1.744,3.895,3.896,3.895C28.379,30.134,30.123,28.39,30.123,26.239L30.123,26.239z"/>
		<path clip-path="url(#SVGID_2_)" fill-rule="evenodd" clip-rule="evenodd" fill="#FF6600" d="M30.106,26.239
			c0,2.142-1.737,3.879-3.879,3.879c-2.142,0-3.879-1.737-3.879-3.879c0-2.142,1.737-3.879,3.879-3.879
			C28.37,22.36,30.106,24.096,30.106,26.239L30.106,26.239z M30.156,26.239c0-2.17-1.759-3.929-3.929-3.929
			c-2.17,0-3.929,1.759-3.929,3.929c0,2.17,1.759,3.929,3.929,3.929C28.397,30.167,30.156,28.408,30.156,26.239L30.156,26.239z"/>
		<path clip-path="url(#SVGID_2_)" fill-rule="evenodd" clip-rule="evenodd" fill="#FF6600" d="M30.14,26.239
			c0,2.161-1.752,3.912-3.912,3.912c-2.161,0-3.912-1.752-3.912-3.912c0-2.161,1.751-3.912,3.912-3.912
			C28.388,22.326,30.139,24.078,30.14,26.239L30.14,26.239z M30.189,26.239c0-2.188-1.774-3.962-3.962-3.962
			c-2.188,0-3.962,1.774-3.962,3.962c0,2.188,1.774,3.962,3.962,3.962C28.416,30.2,30.189,28.427,30.189,26.239L30.189,26.239z"/>
		<path clip-path="url(#SVGID_2_)" fill-rule="evenodd" clip-rule="evenodd" fill="#FF6600" d="M30.173,26.239
			c0,2.179-1.766,3.945-3.945,3.945c-2.179,0-3.945-1.766-3.945-3.945c0-2.179,1.766-3.945,3.945-3.945
			C28.406,22.293,30.172,24.059,30.173,26.239L30.173,26.239z M30.222,26.239c0-2.206-1.789-3.995-3.995-3.995
			c-2.206,0-3.995,1.789-3.995,3.995c0,2.206,1.789,3.995,3.995,3.995C28.434,30.234,30.222,28.445,30.222,26.239L30.222,26.239z"/>
		<path clip-path="url(#SVGID_2_)" fill-rule="evenodd" clip-rule="evenodd" fill="#FF6600" d="M30.206,26.239
			c0,2.197-1.781,3.978-3.978,3.978c-2.197,0-3.978-1.781-3.978-3.978c0-2.197,1.781-3.979,3.978-3.979
			C28.424,22.26,30.206,24.041,30.206,26.239L30.206,26.239z M30.255,26.239c0-2.225-1.804-4.028-4.028-4.028
			c-2.225,0-4.028,1.804-4.028,4.028c0,2.225,1.804,4.028,4.028,4.028C28.452,30.267,30.255,28.463,30.255,26.239L30.255,26.239z"/>
		<path clip-path="url(#SVGID_2_)" fill-rule="evenodd" clip-rule="evenodd" fill="#FF6600" d="M30.239,26.239
			c0,2.216-1.796,4.012-4.011,4.012c-2.216,0-4.012-1.796-4.012-4.011c0-2.216,1.796-4.012,4.011-4.012
			C28.443,22.227,30.239,24.023,30.239,26.239L30.239,26.239z M30.289,26.239c0-2.243-1.818-4.061-4.062-4.061
			c-2.243,0-4.061,1.819-4.061,4.062c0,2.243,1.819,4.061,4.061,4.061C28.471,30.3,30.289,28.482,30.289,26.239L30.289,26.239z"/>
		<path clip-path="url(#SVGID_2_)" fill-rule="evenodd" clip-rule="evenodd" fill="#FF6600" d="M30.272,26.239
			c0,2.234-1.81,4.045-4.044,4.045c-2.234,0-4.045-1.811-4.045-4.044c0-2.234,1.811-4.045,4.044-4.045
			C28.461,22.194,30.272,24.005,30.272,26.239L30.272,26.239z M30.322,26.239c0-2.261-1.833-4.094-4.095-4.094
			c-2.261,0-4.094,1.833-4.094,4.095c0,2.261,1.833,4.094,4.095,4.094C28.489,30.333,30.322,28.5,30.322,26.239L30.322,26.239z"/>
		<path clip-path="url(#SVGID_2_)" fill-rule="evenodd" clip-rule="evenodd" fill="#FF6600" d="M30.305,26.239
			c0,2.252-1.826,4.078-4.078,4.078c-2.252,0-4.078-1.826-4.078-4.078c0-2.252,1.826-4.078,4.078-4.078S30.305,23.986,30.305,26.239
			L30.305,26.239z M30.355,26.239c0-2.28-1.848-4.128-4.128-4.128c-2.28,0-4.128,1.848-4.127,4.128c0,2.28,1.848,4.128,4.128,4.128
			C28.507,30.366,30.355,28.518,30.355,26.239L30.355,26.239z"/>
		<path clip-path="url(#SVGID_2_)" fill-rule="evenodd" clip-rule="evenodd" fill="#FF6600" d="M30.338,26.239
			c0,2.271-1.84,4.111-4.111,4.111c-2.27,0-4.111-1.84-4.111-4.111c0-2.27,1.84-4.111,4.111-4.111
			C28.498,22.128,30.338,23.968,30.338,26.239L30.338,26.239z M30.388,26.239c0-2.298-1.863-4.161-4.161-4.161
			c-2.298,0-4.161,1.863-4.16,4.161c0,2.298,1.863,4.161,4.161,4.161C28.526,30.399,30.388,28.536,30.388,26.239L30.388,26.239z"/>
		<path clip-path="url(#SVGID_2_)" fill-rule="evenodd" clip-rule="evenodd" fill="#FF6600" d="M30.371,26.239
			c0,2.289-1.855,4.144-4.144,4.144c-2.289,0-4.144-1.855-4.144-4.144c0-2.289,1.855-4.144,4.144-4.144
			C28.516,22.095,30.371,23.95,30.371,26.239L30.371,26.239z M30.421,26.239c0-2.316-1.878-4.194-4.194-4.194
			c-2.316,0-4.194,1.878-4.194,4.194c0,2.316,1.878,4.194,4.194,4.194C28.544,30.432,30.421,28.555,30.421,26.239L30.421,26.239z"/>
		<path clip-path="url(#SVGID_2_)" fill-rule="evenodd" clip-rule="evenodd" fill="#FF6600" d="M30.405,26.239
			c0,2.307-1.87,4.177-4.177,4.177c-2.307,0-4.177-1.87-4.177-4.177c0-2.307,1.87-4.177,4.177-4.177
			C28.534,22.061,30.405,23.931,30.405,26.239L30.405,26.239z M30.455,26.239c0-2.335-1.893-4.227-4.227-4.227
			c-2.335,0-4.227,1.893-4.227,4.227c0,2.335,1.893,4.227,4.227,4.227C28.562,30.466,30.455,28.573,30.455,26.239L30.455,26.239z"/>
		<path clip-path="url(#SVGID_2_)" fill-rule="evenodd" clip-rule="evenodd" fill="#FF6600" d="M30.438,26.239
			c0,2.325-1.885,4.211-4.21,4.211c-2.325,0-4.211-1.885-4.211-4.21c0-2.325,1.885-4.211,4.21-4.211
			C28.552,22.028,30.438,23.913,30.438,26.239L30.438,26.239z M30.471,26.239c0-2.344-1.9-4.243-4.244-4.243
			c-2.344,0-4.243,1.9-4.243,4.244c0,2.344,1.9,4.243,4.244,4.243C28.571,30.482,30.471,28.582,30.471,26.239L30.471,26.239z"/>
	</g>
</g>
</svg>
